<?xml version="1.0" encoding="UTF-8"?>
<svg width="17px" height="15px" viewBox="0 0 17 15" version="1.1" xmlns="http://www.w3.org/2000/svg" xmlns:xlink="http://www.w3.org/1999/xlink">
    <!-- Generator: Sketch 46.2 (44496) - http://www.bohemiancoding.com/sketch -->
    <title>Icon-File-Taxo-Blue</title>
    <desc>Created with Sketch.</desc>
    <defs></defs>
    <g id="Page-1" stroke="none" stroke-width="1" fill="none" fill-rule="evenodd">
        <g id="Main-window-DropDown" transform="translate(-94.000000, -261.000000)" fill="#2D5578">
            <g id="Icon-File-Taxo-Blue" transform="translate(94.000000, 261.000000)">
                <path d="M2.1308125,4.0588125 L4.1995625,4.0588125 C4.5358125,4.0588125 4.8083125,3.7863125 4.8083125,3.4500625 L4.8083125,2.9681875 C4.8083125,2.6319375 4.5358125,2.3594375 4.1995625,2.3594375 L2.1308125,2.3594375 C1.7945625,2.3594375 1.5220625,2.6319375 1.5220625,2.9681875 L1.5220625,3.4500625 C1.5220625,3.7863125 1.7945625,4.0588125 2.1308125,4.0588125" id="Fill-1"></path>
                <path d="M4.8174375,5.41165625 C4.8174375,5.07540625 4.5449375,4.80290625 4.2086875,4.80290625 L2.1399375,4.80290625 C1.8036875,4.80290625 1.5311875,5.07540625 1.5311875,5.41165625 L1.5311875,5.89321875 C1.5311875,6.22946875 1.8036875,6.50196875 2.1399375,6.50196875 L4.2086875,6.50196875 C4.5449375,6.50196875 4.8174375,6.22946875 4.8174375,5.89321875 L4.8174375,5.41165625 Z" id="Fill-3"></path>
                <path d="M4.80828125,7.71146875 C4.80828125,7.37553125 4.53578125,7.10303125 4.19953125,7.10303125 L2.13078125,7.10303125 C1.79453125,7.10303125 1.52203125,7.37553125 1.52203125,7.71146875 L1.52203125,8.19334375 C1.52203125,8.52959375 1.79453125,8.80209375 2.13078125,8.80209375 L4.19953125,8.80209375 C4.53578125,8.80209375 4.80828125,8.52959375 4.80828125,8.19334375 L4.80828125,7.71146875 Z" id="Fill-5"></path>
                <path d="M6.1895,4.0588125 L6.6645,4.0588125 C7.0004375,4.0588125 7.27325,3.7863125 7.27325,3.4500625 L7.27325,2.9681875 C7.27325,2.6319375 7.0004375,2.3594375 6.6645,2.3594375 L6.1895,2.3594375 C5.85325,2.3594375 5.58075,2.6319375 5.58075,2.9681875 L5.58075,3.4500625 C5.58075,3.7863125 5.85325,4.0588125 6.1895,4.0588125" id="Fill-7"></path>
                <path d="M10.3489063,5.89321875 L10.3489063,5.41165625 C10.3489063,5.07540625 10.0760938,4.80290625 9.74015625,4.80290625 L6.18953125,4.80290625 C5.85328125,4.80290625 5.58078125,5.07540625 5.58078125,5.41165625 L5.58078125,5.89321875 C5.58078125,6.22946875 5.85328125,6.50196875 6.18953125,6.50196875 L9.74015625,6.50196875 C10.0760938,6.50196875 10.3489063,6.22946875 10.3489063,5.89321875" id="Fill-9"></path>
                <path d="M4.80828125,10.248375 C4.80828125,9.912125 4.53578125,9.639625 4.19953125,9.639625 L2.13078125,9.639625 C1.79453125,9.639625 1.52203125,9.912125 1.52203125,10.248375 L1.52203125,10.7299375 C1.52203125,11.0661875 1.79453125,11.3386875 2.13078125,11.3386875 L4.19953125,11.3386875 C4.53578125,11.3386875 4.80828125,11.0661875 4.80828125,10.7299375 L4.80828125,10.248375 Z" id="Fill-11"></path>
                <path d="M10.3489063,10.248375 C10.3489063,9.912125 10.0760938,9.639625 9.74015625,9.639625 L6.18953125,9.639625 C5.85328125,9.639625 5.58078125,9.912125 5.58078125,10.248375 L5.58078125,10.7299375 C5.58078125,11.0661875 5.85328125,11.3386875 6.18953125,11.3386875 L9.74015625,11.3386875 C10.0760938,11.3386875 10.3489063,11.0661875 10.3489063,10.7299375 L10.3489063,10.248375 Z" id="Fill-13"></path>
                <path d="M4.1994375,12.1761875 L2.1306875,12.1761875 C1.7944375,12.1761875 1.5219375,12.4486875 1.5219375,12.7849375 L1.5219375,13.2668125 C1.5219375,13.60275 1.7944375,13.87525 2.1306875,13.87525 L4.1994375,13.87525 C4.5356875,13.87525 4.8081875,13.60275 4.8081875,13.2668125 L4.8081875,12.7849375 C4.8081875,12.4486875 4.5356875,12.1761875 4.1994375,12.1761875" id="Fill-15"></path>
                <path d="M9.7400625,12.1761875 L6.1894375,12.1761875 C5.8531875,12.1761875 5.5806875,12.4486875 5.5806875,12.7849375 L5.5806875,13.2668125 C5.5806875,13.60275 5.8531875,13.87525 6.1894375,13.87525 L9.7400625,13.87525 C10.0763125,13.87525 10.3488125,13.60275 10.3488125,13.2668125 L10.3488125,12.7849375 C10.3488125,12.4486875 10.0763125,12.1761875 9.7400625,12.1761875" id="Fill-17"></path>
                <path d="M8.22503125,1.2960625 C8.22503125,1.1316875 8.42378125,1.0495 8.53971875,1.16575 L10.5487813,3.1748125 C10.6650313,3.2910625 10.5825313,3.4898125 10.4181562,3.4898125 L8.40940625,3.4898125 C8.30753125,3.4898125 8.22503125,3.4066875 8.22503125,3.305125 L8.22503125,1.2960625 Z M11.5878438,9.6923125 L11.3447188,9.6923125 C11.2740938,9.6923125 11.2165938,9.7498125 11.2165938,9.8204375 L11.2165938,14.103875 C11.2165938,14.298875 11.0587813,14.4566875 10.8640938,14.4566875 L0.85190625,14.4566875 C0.65690625,14.4566875 0.49909375,14.298875 0.49909375,14.103875 L0.49909375,0.8516875 C0.49909375,0.657 0.65690625,0.4991875 0.85190625,0.4991875 L7.37471875,0.4991875 C7.56940625,0.4991875 7.72753125,0.657 7.72753125,0.8516875 L7.72753125,3.6360625 C7.72753125,3.83075 7.88534375,3.9885625 8.08003125,3.9885625 L10.8640938,3.9885625 C11.0587813,3.9885625 11.2165938,4.146375 11.2165938,4.3410625 L11.2165938,6.811375 C11.2165938,6.8823125 11.2740938,6.9398125 11.3447188,6.9398125 L11.5878438,6.9398125 C11.6584688,6.9398125 11.7159688,6.8823125 11.7159688,6.811375 L11.7159688,3.7816875 C11.7159688,3.6879375 11.6784687,3.59825 11.6128438,3.5323125 L8.18253125,0.1035625 C8.11628125,0.037625 8.02690625,0.000125 7.93284375,0.000125 L0.35284375,0.000125 C0.15815625,0.000125 3.125e-05,0.1579375 3.125e-05,0.352625 L3.125e-05,14.60325 C3.125e-05,14.7979375 0.15815625,14.95575 0.35284375,14.95575 L11.3634687,14.95575 C11.5581563,14.95575 11.7159688,14.7979375 11.7159688,14.60325 L11.7159688,9.8204375 C11.7159688,9.7498125 11.6584688,9.6923125 11.5878438,9.6923125 L11.5878438,9.6923125 Z" id="Fill-19"></path>
                <path d="M16.5609063,7.930875 L13.2521563,4.6218125 C13.1574687,4.5274375 13.0318438,4.4755625 12.8974688,4.4755625 C12.7630938,4.4755625 12.6371563,4.5274375 12.5427813,4.6218125 L12.2424688,4.9224375 C12.1477813,5.0168125 12.0962188,5.1424375 12.0962188,5.2768125 C12.0962188,5.4111875 12.1477813,5.53025 12.2424688,5.624625 L14.1946563,7.57025 L8.03996875,7.57025 C7.76340625,7.57025 7.53090625,7.808375 7.53090625,8.0849375 L7.53090625,8.5099375 C7.53090625,8.7861875 7.77028125,9.005875 8.04684375,9.005875 L8.03246875,9.0030625 L14.1727812,9.0030625 L12.2424688,10.9374375 C12.1477813,11.0318125 12.0959063,11.1599375 12.0959063,11.2943125 C12.0959063,11.428375 12.1477813,11.5555625 12.2424688,11.6499375 L12.5427813,11.9505625 C12.6371563,12.0449375 12.7630938,12.0974375 12.8971562,12.0974375 C13.0315313,12.0974375 13.1574687,12.0455625 13.2521563,11.950875 L16.5609063,8.6424375 C16.6559063,8.54775 16.7074688,8.4211875 16.7071563,8.287125 C16.7074688,8.1518125 16.6559063,8.0255625 16.5609063,7.930875" id="Fill-22"></path>
            </g>
        </g>
    </g>
</svg>