<?xml version="1.0" encoding="UTF-8"?>
<svg width="20px" height="25px" viewBox="0 0 20 25" version="1.1" xmlns="http://www.w3.org/2000/svg" xmlns:xlink="http://www.w3.org/1999/xlink">
    <g id="Page-1" stroke="none" stroke-width="1"  fill-rule="evenodd" fill="#69BEAB">
        <path d="M18.4243496,23.1668795 C18.4243496,23.4867467 18.1648733,23.746223 17.8450062,23.746223 L1.39922699,23.746223 C1.07884803,23.746223 0.819883557,23.4867467 0.819883557,23.1668795 L0.819883557,1.39902228 C0.819883557,1.0791551 1.07884803,0.819678842 1.39922699,0.819678842 L12.1134981,0.819678842 C12.4333652,0.819678842 12.6928415,1.0791551 12.6928415,1.39902228 L12.6928415,5.97235528 C12.6928415,6.29222246 12.9523178,6.55118693 13.2721849,6.55118693 L17.8450062,6.55118693 C18.1648733,6.55118693 18.4243496,6.81066318 18.4243496,7.13053036 L18.4243496,23.1668795 Z M13.5101661,2.12883124 C13.5101661,1.85860744 13.8366865,1.72349555 14.0270715,1.91439228 L17.3270772,5.21439801 C17.5179739,5.40529474 17.3828621,5.73181516 17.1126383,5.73181516 L13.8131443,5.73181516 C13.6457898,5.73181516 13.5101661,5.59567969 13.5101661,5.42832518 L13.5101661,2.12883124 Z M19.0748315,5.80193004 L13.440563,0.169708731 C13.3315523,0.0612097836 13.1846693,-0.000204714995 13.0306212,-0.000204714995 L0.579343437,-0.000204714995 C0.259476257,-0.000204714995 0,0.259271542 0,0.579138722 L0,23.9867631 C0,24.3066303 0.259476257,24.5655947 0.579343437,24.5655947 L18.6654015,24.5655947 C18.9852687,24.5655947 19.2442331,24.3066303 19.2442331,23.9867631 L19.2442331,6.21136003 C19.2442331,6.05782379 19.1828186,5.91042899 19.0748315,5.80193004 L19.0748315,5.80193004 Z"/>
        <rect id="Rectangle" x="2.5" y="3.87519279" width="5.3979414" height="2.79147388" rx="1"/>
        <rect id="Rectangle-Copy-2" x="2.51502052" y="7.88863183" width="5.3979414" height="2.79147388" rx="1"/>
        <rect id="Rectangle-Copy-4" x="2.5" y="11.6666667" width="5.3979414" height="2.79147388" rx="1"/>
        <rect id="Rectangle-Copy" x="9.16666667" y="3.87519279" width="2.77998434" height="2.79147388" rx="1"/>
        <rect id="Rectangle-Copy-3" x="9.16666667" y="7.88863183" width="7.83217489" height="2.79147388" rx="1"/>
        <rect id="Rectangle-Copy-5" x="9.16666667" y="11.6666667" width="7.83217489" height="2.79147388" rx="1"/>
        <rect id="Rectangle-Copy-7" x="2.5" y="15.8333333" width="5.3979414" height="2.79147388" rx="1"/>
        <rect id="Rectangle-Copy-6" x="9.16666667" y="15.8333333" width="7.83217489" height="2.79147388" rx="1"/>
        <rect id="Rectangle-Copy-9" x="2.5" y="20" width="5.3979414" height="2.79147388" rx="1"/>
        <rect id="Rectangle-Copy-8" x="9.16666667" y="20" width="7.83217489" height="2.79147388" rx="1"/>
    </g>
</svg>
