<svg xmlns="http://www.w3.org/2000/svg" viewBox="0 0 549.38 549.38">
  <defs>
    <style>.cls-1,.cls-2{fill:#69BEAB;}.cls-1{fill-rule:evenodd;}</style>
  </defs>
  <title>yeti</title>
  <g id="Layer_2" data-name="Layer 2">
    <g id="Layer_1-2" data-name="Layer 1">
      <path class="cls-1" d="M274.69,549.38l-5.42-.05c-26.54-33.52-41.53-56.58-50-60.71-21.63-10.61-27.46,23.73-31.69,42.27l-.91,4A274.68,274.68,0,0,1,89.42,477.5c23.55-60.57,50-122.26,58.67-149.62.61-1.89,8.17-20.06-2.11-25.86-11.13-6.28-22.22,11.9-24.33,14.79C109.22,333.88,86.48,370,49.48,432A274.64,274.64,0,0,1,14.7,363.34C72.28,242.82,103.09,221.51,120,218.22c15-2.92,40.19,16.52,59.88-34.37,20.42-52.77,28.2-75.18,79.09-54.34,50.29,20.6,44.92,38,40.46,49.87s-25.59,42.45,20,49.5c25,3.87,33.18,23,41.84,51.32,8,26.24,16.27,61.29,47.73,77.74,49,25.62,39.12,47.39,28.72,60.75-10.17,13.06-25.65,24.4-80.55-17.94a144,144,0,0,1-50.77-74.11c-.4-1.35-1.73-6.89-3.28-9.06-4.89-6.89-14.51-4.65-17.13,2.15a12.45,12.45,0,0,0-.73,3.42l-.17,4.36c-.17,7.12-.45,23.08-3,51.34-4.49,50.58,36.13,65.71,68,93.5a184.36,184.36,0,0,1,41.35,51,274.65,274.65,0,0,1-116.71,26ZM0,274.69a275,275,0,0,1,2-32.86c2.91.09,5.84.1,8.58-.07,15.43-1,31.9-42.34,46.58-74.09,17.51-37.89,30-57.29,39-46.38,15,18,19.87,31.42,38.63,13.06,5.91-5.79,19,3.31,35.32,21.26l-8.36,21.26c-14.6,37.73-12.75,16-45.51,22.34C90.39,204.24,58.2,232,6.78,335.33A274.55,274.55,0,0,1,0,274.69Zm130.3-145c-12.78,12.5-11.81,8.23-29.16-12.57-17.48-21-36.31,18.47-49.87,47.81-16.39,35.47-30.78,69.7-41.12,70.35-2,.13-4.52.15-7.33.1a274.68,274.68,0,0,1,528-60,156.81,156.81,0,0,1-8.32,15.15c-9.42,14.37-17.95,19.49-26,8.24C433.89,111.6,433.78,76.38,404.95,92.56,391,100.38,390.76,114,364,82.2c-29.25-34.76-41.91-76.57-69.08-39.33-7.16,9.81-21.95,37-37.43,65.4-50.08-17.27-69.43,6.3-84.64,40.91-15.79-16-33.12-28.7-42.57-19.45Zm169.86-83c20.73-28.41,23.42-2.5,58.92,39.68,30.3,36,35.31,19.53,49,11.83,22.15-12.42,15.41,10,83.1,104.35,13.57,18.91,28.26,4.36,36.66-8.47a110.13,110.13,0,0,0,5.92-10.6,274.67,274.67,0,0,1-125.14,331,204.35,204.35,0,0,0-45.86-56.74c-39.59-34.56-64.74-39.61-61.41-77.19L302.51,367a163.85,163.85,0,0,0,42.78,49.1c56.86,43.86,86.86,41.23,107.67,14.51,18.12-23.27,24.3-58.84-35-89.84-22.71-11.87-29.22-37-38.17-66.22-8.31-27.17-19.31-58.91-57.41-64.81-17.5-2.71-13.87.45-4.83-23.51s6.13-51.14-51.25-74.65l-2.31-.93c16.67-29.7,31.38-57.37,36.2-64ZM211,517.22a91.88,91.88,0,0,1,3-9c6.39,5.63,14.74,19.06,29.59,39.37a274.91,274.91,0,0,1-38.22-7.13l1.17-5.19L211,517.22Zm-148.8-68.5,52.48-86.37L74.95,463.26q-6.67-7.06-12.78-14.54Z"/>
      <path class="cls-2" d="M471.8,66.4h-3.09V43.52h-6.19V40.83H478v2.68H471.8Z"/>
      <path class="cls-2" d="M503,66.4H500V46.32L493,66.4h-1.21l-6.9-20.09V66.4h-3.13V40.83h4.35L492.4,59l6.34-18.17H503Z"/>
    </g>
  </g>
</svg>
