<?xml version="1.0" encoding="UTF-8"?>
<svg width="35px" height="35px" viewBox="0 0 35 35" version="1.1" xmlns="http://www.w3.org/2000/svg" xmlns:xlink="http://www.w3.org/1999/xlink">
    <!-- Generator: Sketch 46.2 (44496) - http://www.bohemiancoding.com/sketch -->
    <title>QuickTaxonomyInfo-Icon</title>
    <desc>Created with Sketch.</desc>
    <defs>
        <polygon id="path-1" points="0.62569756 0.126545455 28.6895647 0.126545455 28.6895647 34.9089417 0.62569756 34.9089417"></polygon>
    </defs>
    <g id="Page-1" stroke="none" stroke-width="1" fill="none" fill-rule="evenodd">
        <g id="Main-window-DropDown" transform="translate(-19.000000, -11.000000)">
            <g id="QuickTaxonomyInfo-Icon" transform="translate(19.000000, 10.000000)">
                <path d="M13.7512364,6.35301818 C13.2134182,6.35301818 12.7443273,6.7512 12.6712364,7.29992727 L12.4770545,8.75956364 C12.3963273,9.35629091 12.8163273,9.90501818 13.4130545,9.98465455 L18.2545091,10.6315636 C18.3036,10.6381091 18.3526909,10.6413818 18.4006909,10.6413818 C18.9385091,10.6413818 19.4076,10.2421091 19.4806909,9.69447273 L19.6759636,8.23592727 C19.7556,7.63810909 19.3356,7.08938182 18.7388727,7.00974545 L13.8974182,6.36283636 C13.8483273,6.35629091 13.7992364,6.35301818 13.7512364,6.35301818 M13.7534182,7.44392727 L18.5937818,8.09083636 L18.3996,9.55047273 L13.5581455,8.90356364 L13.7534182,7.44392727" id="Fill-1" fill="#2D5578"></path>
                <path d="M13.0753091,11.5636364 C12.5374909,11.5636364 12.0684,11.9618182 11.9953091,12.5094545 L11.8011273,13.9690909 C11.7204,14.5669091 12.1404,15.1156364 12.7371273,15.1952727 L17.5785818,15.8421818 C17.6276727,15.8487273 17.6767636,15.852 17.7247636,15.852 C18.2625818,15.852 18.7316727,15.4527273 18.8047636,14.9050909 L19.0000364,13.4454545 C19.0796727,12.8487273 18.6596727,12.3 18.0629455,12.2203636 L13.2214909,11.5734545 C13.1724,11.5669091 13.1233091,11.5636364 13.0753091,11.5636364 M13.0774909,12.6545455 L17.9178545,13.3014545 L17.7236727,14.7610909 L12.8822182,14.1141818 L13.0774909,12.6545455" id="Fill-3" fill="#2D5578"></path>
                <path d="M12.5468727,16.4727273 L17.3883273,17.1196364 C17.9861455,17.1992727 18.4050545,17.748 18.3254182,18.3458182 L18.1301455,19.8054545 C18.0505091,20.4021818 17.5017818,20.8210909 16.9050545,20.7414545 L12.0636,20.0945455 C11.4657818,20.0149091 11.0468727,19.4661818 11.1265091,18.8694545 L11.3206909,17.4098182 C11.4014182,16.8130909 11.9501455,16.3930909 12.5468727,16.4727273" id="Fill-5" fill="#2D5578"></path>
                <path d="M22.4018182,7.50785455 C21.8629091,7.50785455 21.3949091,7.90603636 21.3218182,8.45476364 L21.1276364,9.9144 C21.0469091,10.5122182 21.4669091,11.0609455 22.0636364,11.1405818 L23.5090909,11.3336727 C23.5581818,11.3402182 23.6061818,11.3434909 23.6541818,11.3434909 C24.1930909,11.3434909 24.6610909,10.9442182 24.7341818,10.3954909 L24.9294545,8.93694545 C25.0090909,8.34021818 24.5890909,7.79149091 23.9923636,7.71185455 L22.548,7.51876364 C22.4989091,7.51112727 22.4498182,7.50785455 22.4018182,7.50785455 M22.404,8.59985455 L23.8483636,8.79294545 L23.6530909,10.2525818 L22.2087273,10.0594909 L22.404,8.59985455" id="Fill-7" fill="#2D5578"></path>
                <path d="M21.7061455,12.7164 C21.1683273,12.7164 20.7003273,13.1145818 20.6261455,13.6622182 L20.4319636,15.1218545 C20.3512364,15.7196727 20.7712364,16.2684 21.3679636,16.3480364 L29.3686909,17.4171273 C29.4177818,17.4225818 29.4657818,17.4258545 29.5148727,17.4258545 C30.0526909,17.4258545 30.5217818,17.0276727 30.5937818,16.4789455 L30.7890545,15.0193091 C30.8686909,14.4225818 30.4497818,13.8749455 29.8519636,13.7942182 L21.8523273,12.7262182 C21.8032364,12.7196727 21.7541455,12.7164 21.7061455,12.7164 M21.7083273,13.8073091 L29.7079636,14.8753091 L29.5126909,16.3349455 L21.5130545,15.2669455 L21.7083273,13.8073091" id="Fill-9" fill="#2D5578"></path>
                <path d="M3.82276364,1.40989091 L8.66421818,2.0568 C9.26203636,2.13643636 9.70821818,2.48225455 9.6624,2.83025455 L9.54894545,3.67898182 C9.50203636,4.02589091 8.98058182,4.24407273 8.38385455,4.16334545 L3.54130909,3.51752727 C2.94458182,3.4368 2.4984,3.09098182 2.54421818,2.74407273 L2.65767273,1.89425455 C2.70458182,1.54734545 3.22603636,1.33025455 3.82276364,1.40989091" id="Fill-11" fill="#2D5578"></path>
                <path d="M4.36876364,10.3544727 L5.81312727,10.5475636 C6.41094545,10.6272 6.85494545,10.9882909 6.80585455,11.3559273 L6.68694545,12.2526545 C6.63785455,12.6192 6.11312727,12.8526545 5.5164,12.7730182 L4.07203636,12.5799273 C3.47421818,12.5002909 3.03021818,12.1381091 3.07930909,11.7715636 L3.19930909,10.8748364 C3.2484,10.5072 3.77203636,10.2748364 4.36876364,10.3544727" id="Fill-13" fill="#2D5578"></path>
                <path d="M1.2996,5.22589091 L9.29923636,6.29389091 C9.89705455,6.37461818 10.3399636,6.74443636 10.2897818,7.12189091 L10.1665091,8.04370909 C10.1163273,8.42116364 9.5916,8.66225455 8.99378182,8.58261818 L0.994145455,7.51461818 C0.396327273,7.43389091 -0.0465818182,7.06407273 0.00469090909,6.68661818 L0.126872727,5.7648 C0.177054545,5.38625455 0.702872727,5.14625455 1.2996,5.22589091" id="Fill-15" fill="#2D5578"></path>
                <path d="M21.1974545,17.6286545 L29.1970909,18.6966545 C29.7949091,18.7762909 30.2149091,19.3250182 30.1341818,19.9228364 L29.94,21.3813818 C29.8592727,21.9792 29.3105455,22.3981091 28.7138182,22.3184727 L20.7141818,21.2493818 C20.1163636,21.1708364 19.6974545,20.6210182 19.7770909,20.0242909 L19.9712727,18.5646545 C20.052,17.9679273 20.6007273,17.5490182 21.1974545,17.6286545" id="Fill-17" fill="#2D5578"></path>
                <path d="M11.6791636,21.8697818 C11.1402545,21.8697818 10.6722545,22.2679636 10.5991636,22.8156 L10.4049818,24.2752364 C10.3242545,24.8730545 10.7442545,25.4217818 11.3409818,25.5014182 L16.1824364,26.1483273 C16.2315273,26.1548727 16.2806182,26.1581455 16.3286182,26.1581455 C16.8664364,26.1581455 17.3355273,25.7588727 17.4086182,25.2112364 L17.6038909,23.7526909 C17.6824364,23.1548727 17.2635273,22.6061455 16.6668,22.5265091 L11.8253455,21.8796 C11.7762545,21.8730545 11.7271636,21.8697818 11.6791636,21.8697818 M11.6813455,22.9606909 L16.5217091,23.6076 L16.3275273,25.0672364 L11.4860727,24.4203273 L11.6813455,22.9606909" id="Fill-19" fill="#2D5578"></path>
                <path d="M20.3297455,23.0246182 C19.7908364,23.0246182 19.3228364,23.4228 19.2497455,23.9715273 L19.0555636,25.4311636 C18.9748364,26.0278909 19.3948364,26.5777091 19.9915636,26.6562545 L27.9912,27.7253455 C28.0402909,27.7308 28.0893818,27.7340727 28.1373818,27.7340727 C28.6762909,27.7340727 29.1442909,27.3358909 29.2173818,26.7882545 L29.4126545,25.3286182 C29.4922909,24.7308 29.0733818,24.1831636 28.4755636,24.1024364 L20.4748364,23.0344364 C20.4257455,23.0278909 20.3777455,23.0246182 20.3297455,23.0246182 M20.3319273,24.1166182 L28.3304727,25.1835273 L28.1362909,26.6431636 L20.1366545,25.5751636 L20.3319273,24.1166182" id="Fill-21" fill="#2D5578"></path>
                <path d="M10.9568727,27.2763273 C10.4190545,27.2763273 9.95105455,27.6745091 9.87687273,28.2221455 L9.68269091,29.6817818 C9.60196364,30.2796 10.0219636,30.8283273 10.6186909,30.9079636 L15.4601455,31.5548727 C15.5092364,31.5614182 15.5583273,31.5646909 15.6063273,31.5646909 C16.1441455,31.5646909 16.6132364,31.1654182 16.6863273,30.6177818 L16.8816,29.1581455 C16.9612364,28.5614182 16.5423273,28.0126909 15.9445091,27.9330545 L11.1030545,27.2861455 C11.0539636,27.2796 11.0048727,27.2763273 10.9568727,27.2763273 M10.9590545,28.3672364 L15.7994182,29.0141455 L15.6052364,30.4737818 L10.7637818,29.8268727 L10.9590545,28.3672364" id="Fill-23" fill="#2D5578"></path>
                <path d="M19.6074545,28.4311636 C19.0696364,28.4311636 18.6005455,28.8293455 18.5274545,29.3780727 L18.3332727,30.8377091 C18.2525455,31.4344364 18.6725455,31.9831636 19.2692727,32.0628 L27.27,33.1318909 C27.3190909,33.1373455 27.3670909,33.1406182 27.4161818,33.1406182 C27.954,33.1406182 28.422,32.7424364 28.4950909,32.1948 L28.6903636,30.7351636 C28.77,30.1373455 28.3510909,29.5897091 27.7532727,29.5089818 L19.7536364,28.4409818 C19.7045455,28.4344364 19.6554545,28.4311636 19.6074545,28.4311636 M19.6096364,29.5220727 L27.6092727,30.5900727 L27.414,32.0497091 L19.4143636,30.9817091 L19.6096364,29.5220727" id="Fill-25" fill="#2D5578"></path>
                <g id="Group-29" transform="translate(5.454545, 0.964691)">
                    <mask id="mask-2" fill="white">
                        <use xlink:href="#path-1"></use>
                    </mask>
                    <g id="Clip-28"></g>
                    <path d="M26.0005091,10.1952 L21.7186909,9.62356364 C21.5016,9.59410909 21.3499636,9.39447273 21.3783273,9.17629091 L21.9510545,4.89665455 C21.9968727,4.54429091 22.4441455,4.42647273 22.6579636,4.70683636 L26.3681455,9.56138182 C26.5830545,9.84174545 26.3506909,10.2421091 26.0005091,10.1952 M28.5346909,10.6261091 L22.1997818,2.34174545 C22.0765091,2.18138182 21.8965091,2.07665455 21.6968727,2.04938182 L7.31432727,0.128290909 C7.13323636,0.105381818 6.96632727,0.230836364 6.93905455,0.411927273 L6.86596364,0.909381818 C6.85723636,0.969381818 6.87250909,1.03156364 6.9096,1.07956364 C6.94669091,1.12756364 7.00014545,1.16029091 7.06123636,1.16901818 L20.3648727,2.95483636 C20.7805091,3.01047273 21.0717818,3.39229091 21.0161455,3.80792727 L20.2241455,9.74029091 C20.1685091,10.1559273 20.4597818,10.5366545 20.8754182,10.5922909 L26.8088727,11.3853818 C27.2245091,11.4410182 27.5157818,11.8217455 27.4601455,12.2373818 L24.6816,33.0453818 C24.6259636,33.4610182 24.2441455,33.7522909 23.8285091,33.6966545 L2.48923636,30.8472 C2.07469091,30.7915636 1.78232727,30.4097455 1.83796364,29.9941091 L3.86923636,14.7966545 C3.88232727,14.7017455 3.85723636,14.6057455 3.79832727,14.5304727 C3.74050909,14.4530182 3.65541818,14.4039273 3.56050909,14.3919273 L3.15250909,14.3373818 C2.98778182,14.3155636 2.83505455,14.4322909 2.81323636,14.5970182 L0.632509091,30.9170182 C0.576872727,31.3315636 0.868145455,31.7133818 1.28378182,31.7679273 L24.7514182,34.9021091 C25.1659636,34.9577455 25.5477818,34.6675636 25.6034182,34.2519273 L28.6830545,11.1868364 C28.7092364,10.9882909 28.6557818,10.7853818 28.5346909,10.6261091" id="Fill-27" fill="#2D5578" mask="url(#mask-2)"></path>
                </g>
            </g>
        </g>
    </g>
</svg>
